# Blender v2.82 (sub 7) OBJ File: 'bullet.blend'
# www.blender.org
mtllib bullet.mtl
o Cylinder
v 0.000000 0.020000 -0.033933
v 0.000000 0.020000 0.029329
v 0.017321 0.010000 -0.033933
v 0.017321 0.010000 0.029329
v 0.017321 -0.010000 -0.033933
v 0.017321 -0.010000 0.029329
v -0.000000 -0.020000 -0.033933
v -0.000000 -0.020000 0.029329
v -0.017321 -0.010000 -0.033933
v -0.017321 -0.010000 0.029329
v -0.017321 0.010000 -0.033933
v -0.017321 0.010000 0.029329
v -0.000000 0.015593 0.042620
v 0.013504 0.007796 0.042620
v 0.013504 -0.007796 0.042620
v -0.000000 -0.015593 0.042620
v -0.013504 -0.007796 0.042620
v -0.013504 0.007796 0.042620
v -0.000000 0.004471 0.055747
v 0.003872 0.002236 0.055747
v 0.003872 -0.002236 0.055747
v -0.000000 -0.004471 0.055747
v -0.003872 -0.002236 0.055747
v -0.003872 0.002236 0.055747
vt 0.436144 0.309159
vt 0.610602 1.000000
vt 0.436144 1.000000
vt 0.610602 0.309159
vt 0.697830 0.973380
vt 0.348915 0.717461
vt 0.261686 0.000000
vt 0.348915 0.026620
vt 0.261686 0.690841
vt 0.087229 0.000000
vt 0.242465 0.841851
vt 0.087229 0.690841
vt 0.000000 0.026620
vt 0.348915 0.282539
vt 0.348915 0.973380
vt 1.000000 0.110280
vt 0.848915 0.441121
vt 0.697831 0.110280
vt 0.815623 0.441121
vt 0.849399 0.588424
vt 0.815623 0.563770
vt 0.455366 0.158149
vt 0.106450 0.841851
vt 0.659387 0.137395
vt 0.697830 0.282539
vt 0.038443 0.862605
vt 0.000000 0.717461
vt 0.591380 0.158149
vt 0.781846 0.637733
vt 0.781846 0.588424
vt 0.697831 0.699058
vt 0.815623 0.662388
vt 0.815623 0.785037
vt 0.697831 0.527100
vt 0.503872 0.000000
vt 0.542874 0.000000
vt 0.849399 0.637733
vt 0.933415 0.699058
vt 0.154956 1.000000
vt 0.310472 0.862605
vt 0.848915 0.000000
vt 1.000000 0.330840
vt 0.697831 0.330840
vt 0.933415 0.527100
vt 0.387358 0.137395
vt 0.193959 1.000000
vn 0.5000 0.8660 -0.0000
vn 1.0000 0.0000 0.0000
vn 0.5000 -0.8660 0.0000
vn -0.5000 -0.8660 0.0000
vn 0.4806 -0.8324 0.2760
vn -1.0000 0.0000 0.0000
vn -0.5000 0.8660 -0.0000
vn -0.0000 0.0000 -1.0000
vn 0.8062 0.0000 0.5916
vn -0.4806 0.8324 0.2760
vn -0.4806 -0.8324 0.2760
vn 0.9612 0.0000 0.2760
vn -0.9612 0.0000 0.2760
vn 0.4806 0.8324 0.2760
vn 0.0000 0.0000 1.0000
vn -0.8062 0.0000 0.5916
vn 0.4031 -0.6982 0.5916
vn 0.4031 0.6982 0.5916
vn -0.4031 0.6982 0.5916
vn -0.4031 -0.6982 0.5916
usemtl Material.001
s off
f 2/1/1 3/2/1 1/3/1
f 4/4/2 5/5/2 3/2/2
f 6/6/3 7/7/3 5/8/3
f 8/9/4 9/10/4 7/7/4
f 6/6/5 16/11/5 8/9/5
f 10/12/6 11/13/6 9/10/6
f 12/14/7 1/3/7 11/15/7
f 3/16/8 7/17/8 11/18/8
f 15/19/9 20/20/9 21/21/9
f 12/14/10 13/22/10 2/1/10
f 8/9/11 17/23/11 10/12/11
f 4/4/12 15/24/12 6/25/12
f 10/12/13 18/26/13 12/27/13
f 4/4/14 13/22/14 14/28/14
f 23/29/15 22/30/15 21/21/15
f 17/31/16 24/32/16 18/33/16
f 16/34/17 21/21/17 22/30/17
f 14/28/18 19/35/18 20/36/18
f 18/33/19 19/37/19 13/38/19
f 16/11/20 23/39/20 17/23/20
f 2/1/1 4/4/1 3/2/1
f 4/4/2 6/25/2 5/5/2
f 6/6/3 8/9/3 7/7/3
f 8/9/4 10/12/4 9/10/4
f 6/6/5 15/40/5 16/11/5
f 10/12/6 12/27/6 11/13/6
f 12/14/7 2/1/7 1/3/7
f 11/18/8 1/41/8 3/16/8
f 3/16/8 5/42/8 7/17/8
f 7/17/8 9/43/8 11/18/8
f 15/19/9 14/44/9 20/20/9
f 12/14/10 18/45/10 13/22/10
f 8/9/11 16/11/11 17/23/11
f 4/4/12 14/28/12 15/24/12
f 10/12/13 17/23/13 18/26/13
f 4/4/14 2/1/14 13/22/14
f 21/21/15 20/20/15 23/29/15
f 20/20/15 19/37/15 23/29/15
f 19/37/15 24/32/15 23/29/15
f 17/31/16 23/29/16 24/32/16
f 16/34/17 15/19/17 21/21/17
f 14/28/18 13/22/18 19/35/18
f 18/33/19 24/32/19 19/37/19
f 16/11/20 22/46/20 23/39/20
