# Blender v2.82 (sub 7) OBJ File: 'flag.blend'
# www.blender.org
mtllib flag.mtl
o Cube
v 0.021753 -0.000523 -0.021753
v 0.021753 -0.000523 0.021753
v -0.021753 -0.000523 -0.021753
v -0.021753 -0.000523 0.021753
v 0.021753 2.024803 -0.021753
v -0.021753 2.024803 0.021753
v 0.021753 2.024803 0.021753
v -0.021753 2.024803 -0.021753
v -0.021753 2.490187 0.021753
v 0.021753 2.490187 -0.021753
v 0.021753 2.490187 0.021753
v -0.021753 2.490187 -0.021753
v 0.021753 2.032514 -0.012643
v 0.021753 2.032514 0.012643
v 0.021753 2.482476 -0.012643
v 0.021753 2.482476 0.012643
v 0.860993 2.268260 -0.012643
v 0.860993 2.268260 0.012643
v 0.860993 2.334399 -0.012643
v 0.860993 2.334399 0.012643
vt 0.040124 0.353694
vt 0.075286 0.337669
vt 0.075286 0.353694
vt 0.801868 0.212704
vt 0.837362 0.958716
vt 0.801868 0.958716
vt 0.917935 0.212704
vt 0.953429 0.958716
vt 0.917935 0.958716
vt 0.914740 0.787296
vt 0.879246 0.041284
vt 0.914740 0.041284
vt 0.840557 0.212704
vt 0.876051 0.958716
vt 0.840557 0.958716
vt 0.801868 0.041284
vt 0.837362 0.212704
vt 0.953429 0.212704
vt 0.945997 0.044125
vt 0.953429 0.041284
vt 0.914740 0.958716
vt 0.879246 0.787296
vt 0.840557 0.041284
vt 0.876051 0.212704
vt 0.955955 0.332400
vt 0.976585 0.014314
vt 0.976585 0.332400
vt 0.925367 0.044125
vt 0.917935 0.041284
vt 0.925367 0.209864
vt 0.945997 0.209864
vt 0.098426 0.362406
vt 0.077796 0.338044
vt 0.098426 0.338044
vt 0.416654 0.323037
vt 0.591421 0.013911
vt 0.783751 0.323037
vt 0.999072 0.014072
vt 0.978442 0.326777
vt 0.978442 0.014072
vt 0.383616 0.323037
vt 0.208850 0.013911
vt 0.262809 0.013911
vt 0.036950 0.353694
vt 0.001591 0.337669
vt 0.036950 0.337669
vt 0.040124 0.337669
vt 0.837362 0.041284
vt 0.879246 0.958716
vt 0.876051 0.041284
vt 0.955955 0.014314
vt 0.077796 0.362406
vt 0.537462 0.013911
vt 0.999072 0.326777
vt 0.016519 0.323037
vt 0.001591 0.353694
vn 0.0000 -1.0000 0.0000
vn 0.0000 0.0000 -1.0000
vn 1.0000 0.0000 0.0000
vn -1.0000 0.0000 0.0000
vn 0.0000 0.0000 1.0000
vn 0.2704 -0.9627 0.0000
vn 0.1738 0.9848 0.0000
vn 0.0000 1.0000 0.0000
usemtl Material
s off
f 1/1/1 4/2/1 3/3/1
f 8/4/2 1/5/2 3/6/2
f 5/7/3 2/8/3 1/9/3
f 6/10/4 3/11/4 4/12/4
f 7/13/5 4/14/5 2/15/5
f 12/16/2 5/17/2 8/4/2
f 7/18/3 16/19/3 11/20/3
f 9/21/4 8/22/4 6/10/4
f 11/23/5 6/24/5 7/13/5
f 13/25/6 18/26/6 14/27/6
f 11/20/3 15/28/3 10/29/3
f 10/29/3 13/30/3 5/7/3
f 5/7/3 14/31/3 7/18/3
f 19/32/3 18/33/3 17/34/3
f 15/35/2 17/36/2 13/37/2
f 16/38/7 19/39/7 15/40/7
f 16/41/5 18/42/5 20/43/5
f 9/44/8 10/45/8 12/46/8
f 1/1/1 2/47/1 4/2/1
f 8/4/2 5/17/2 1/5/2
f 5/7/3 7/18/3 2/8/3
f 6/10/4 8/22/4 3/11/4
f 7/13/5 6/24/5 4/14/5
f 12/16/2 10/48/2 5/17/2
f 7/18/3 14/31/3 16/19/3
f 9/21/4 12/49/4 8/22/4
f 11/23/5 9/50/5 6/24/5
f 13/25/6 17/51/6 18/26/6
f 11/20/3 16/19/3 15/28/3
f 10/29/3 15/28/3 13/30/3
f 5/7/3 13/30/3 14/31/3
f 19/32/3 20/52/3 18/33/3
f 15/35/2 19/53/2 17/36/2
f 16/38/7 20/54/7 19/39/7
f 16/41/5 14/55/5 18/42/5
f 9/44/8 11/56/8 10/45/8
