# Blender v2.82 (sub 7) OBJ File: 'rifle.blend'
# www.blender.org
mtllib rifle.mtl
o Cube
v -0.055830 -0.083336 -0.339545
v 0.055830 0.064553 -0.339545
v 0.024118 0.058681 0.281275
v -0.073945 -0.076680 -0.221085
v 0.073945 -0.076680 -0.221085
v -0.073945 0.071209 -0.221085
v 0.073945 0.071209 0.110935
v 0.073945 -0.076680 0.110935
v -0.073945 0.071209 0.110935
v -0.024118 0.010445 0.916188
v 0.024118 0.058681 0.916188
v 0.024118 0.010445 0.916188
v -0.037043 0.013549 -0.510121
v 0.037043 0.013549 -0.510121
v 0.037043 -0.122075 -0.483943
v -0.073945 0.071209 0.064744
v -0.073945 -0.076680 0.064744
v 0.073945 0.071209 0.064744
v 0.026525 0.081393 0.110935
v -0.026525 0.081393 0.110935
v 0.026525 0.081393 0.064744
v 0.007063 0.088219 0.093989
v -0.007063 0.088219 0.093989
v -0.007063 0.088219 0.081690
v 0.007063 0.088219 0.081690
v 0.007063 0.098418 0.093989
v 0.007063 0.107623 0.093989
v -0.007063 0.107623 0.093989
v 0.016748 0.107464 0.081690
v 0.016748 0.107464 0.093989
v 0.013188 0.113425 0.081690
v 0.013188 0.113425 0.093989
v 0.016899 0.120137 0.081690
v 0.016899 0.120137 0.093989
v 0.013339 0.116811 0.081690
v 0.013339 0.116811 0.093989
v 0.055830 -0.083336 -0.339545
v -0.055830 0.064553 -0.339545
v 0.024118 0.010445 0.281275
v -0.024118 0.058681 0.281275
v -0.024118 0.010445 0.281275
v 0.073945 0.071209 -0.221085
v -0.073945 -0.076680 0.110935
v -0.024118 0.058681 0.916188
v -0.037043 -0.122075 -0.483943
v 0.073945 -0.076680 0.064744
v -0.026525 0.081393 0.064744
v 0.002394 0.083283 0.911546
v -0.002394 0.083283 0.911546
v 0.002394 0.083283 0.905405
v 0.007063 0.098418 0.081690
v -0.007063 0.098418 0.081690
v -0.002394 0.083283 0.905405
v -0.002394 0.066154 0.905405
v 0.007063 0.107623 0.081690
v -0.007063 0.107623 0.081690
v 0.002394 0.066154 0.905405
v -0.007063 0.098418 0.093989
v -0.002394 0.066154 0.911546
v 0.002394 0.066154 0.911546
v 0.006013 0.061853 0.916188
v -0.006013 0.061853 0.916188
v 0.006013 0.061853 0.900762
v -0.006013 0.061853 0.900762
v -0.024118 0.010445 0.650025
v 0.024118 0.010445 0.900762
v -0.024118 0.058681 0.900762
v 0.024118 0.058681 0.900762
v -0.016748 0.107464 0.081690
v -0.016748 0.107464 0.093989
v -0.013188 0.113425 0.081690
v -0.013188 0.113425 0.093989
v -0.016899 0.120137 0.081690
v -0.016899 0.120137 0.093989
v -0.013339 0.116811 0.081690
v -0.013339 0.116811 0.093989
vt 0.806012 0.053958
vt 0.748428 0.163602
vt 0.751210 0.053937
vt 0.041029 0.557417
vt 0.125909 0.451045
vt 0.211449 0.564648
vt 0.562131 0.935764
vt 0.506385 0.945629
vt 0.506385 0.775418
vt 0.469736 0.135848
vt 0.619715 0.212082
vt 0.448801 0.212082
vt 0.179526 0.854016
vt 0.052864 0.958716
vt 0.009105 0.846785
vt 0.402849 0.222306
vt 0.229660 0.153215
vt 0.400080 0.145984
vt 0.257528 0.412943
vt 0.427948 0.405712
vt 0.619715 0.394869
vt 0.448801 0.394869
vt 0.182294 0.777694
vt 0.992309 0.202522
vt 0.842330 0.126305
vt 0.971374 0.126305
vt 0.448801 0.424408
vt 0.562131 0.539603
vt 0.506385 0.539603
vt 0.346464 0.548955
vt 0.261584 0.442583
vt 0.432004 0.435352
vt 0.036973 0.587056
vt 0.207393 0.594287
vt 0.692682 0.163602
vt 0.635098 0.053958
vt 0.689900 0.053937
vt 0.816212 0.502096
vt 0.871958 0.533137
vt 0.816212 0.533137
vt 0.920658 0.472528
vt 0.938486 0.460871
vt 0.938486 0.472522
vt 0.345277 0.948817
vt 0.402217 0.956357
vt 0.346631 0.958715
vt 0.124722 0.051183
vt 0.181662 0.043643
vt 0.180307 0.053541
vt 0.903176 0.494624
vt 0.817556 0.407043
vt 0.903176 0.407043
vt 0.273419 0.041284
vt 0.432004 0.051451
vt 0.577068 0.040721
vt 0.598780 0.135848
vt 0.949661 0.016642
vt 0.992309 0.386460
vt 0.821394 0.202523
vt 0.011874 0.770463
vt 0.619715 0.424408
vt 0.751210 0.024212
vt 0.712392 0.035103
vt 0.689900 0.024212
vt 0.806012 0.024233
vt 0.635098 0.024233
vt 0.919326 0.502555
vt 0.907558 0.437900
vt 0.919326 0.407384
vt 0.889321 0.514164
vt 0.875107 0.520727
vt 0.875107 0.514164
vt 0.712392 0.043018
vt 0.728718 0.043018
vt 0.728718 0.035103
vt 0.920495 0.498808
vt 0.934710 0.492244
vt 0.934710 0.498808
vt 0.921515 0.410410
vt 0.933300 0.419500
vt 0.921515 0.419500
vt 0.908689 0.514146
vt 0.920476 0.523236
vt 0.908689 0.523236
vt 0.920496 0.455641
vt 0.934711 0.446550
vt 0.934711 0.455641
vt 0.920476 0.514146
vt 0.931114 0.523236
vt 0.889321 0.520727
vt 0.875107 0.526651
vt 0.931114 0.514146
vt 0.930930 0.507913
vt 0.937820 0.510204
vt 0.950641 0.423442
vt 0.958397 0.425830
vt 0.943753 0.425733
vt 0.920496 0.446550
vt 0.934732 0.442609
vt 0.943937 0.419500
vt 0.947046 0.503547
vt 0.935853 0.495031
vt 0.947046 0.495681
vt 0.943469 0.456445
vt 0.947583 0.464367
vt 0.943469 0.464360
vt 0.890600 0.522124
vt 0.904814 0.513969
vt 0.904814 0.522125
vt 0.945577 0.507816
vt 0.941733 0.510107
vt 0.951326 0.515109
vt 0.947413 0.507194
vt 0.951326 0.507194
vt 0.880640 0.510209
vt 0.887737 0.499186
vt 0.887737 0.510209
vt 0.926018 0.438452
vt 0.933116 0.427429
vt 0.933116 0.438452
vt 0.939537 0.438328
vt 0.945070 0.427305
vt 0.945070 0.438328
vt 0.899681 0.508026
vt 0.894148 0.511978
vt 0.894148 0.508026
vt 0.943937 0.410410
vt 0.933300 0.410410
vt 0.948907 0.447304
vt 0.943526 0.441894
vt 0.948907 0.439565
vt 0.938486 0.441224
vt 0.875269 0.512981
vt 0.893097 0.512981
vt 0.920495 0.486320
vt 0.920495 0.492244
vt 0.945070 0.473548
vt 0.939537 0.484569
vt 0.939537 0.473548
vt 0.939453 0.440614
vt 0.943119 0.460004
vt 0.939453 0.471655
vt 0.851034 0.500054
vt 0.871958 0.502096
vt 0.938486 0.473583
vt 0.920658 0.485228
vt 0.920658 0.473577
vt 0.948873 0.455740
vt 0.943524 0.450330
vt 0.948873 0.448001
vt 0.930930 0.529469
vt 0.692682 0.562256
vt 0.290879 0.551313
vt 0.378844 0.785569
vt 0.070324 0.448687
vt 0.958397 0.404080
vt 0.950641 0.406468
vt 0.943753 0.404177
vt 0.934732 0.459582
vt 0.894403 0.507465
vt 0.905596 0.498949
vt 0.905596 0.506814
vt 0.949619 0.427165
vt 0.945504 0.435087
vt 0.945504 0.427172
vt 0.950203 0.494281
vt 0.935989 0.486125
vt 0.950203 0.486125
vt 0.937820 0.527178
vt 0.945577 0.529566
vt 0.945495 0.481323
vt 0.949409 0.473409
vt 0.949409 0.481324
vt 0.562131 0.945629
vt 0.211449 0.948549
vt 0.232429 0.229537
vt 0.920658 0.460877
vt 0.126076 0.041284
vt 0.817556 0.494624
vt 0.491448 0.040721
vt 0.864042 0.016642
vt 0.821394 0.386460
vt 0.907558 0.472039
vt 0.889321 0.526651
vt 0.954554 0.423539
vt 0.920518 0.442609
vt 0.935853 0.502896
vt 0.947583 0.456452
vt 0.890600 0.513969
vt 0.947413 0.515109
vt 0.880640 0.499186
vt 0.926018 0.427429
vt 0.939537 0.427305
vt 0.899681 0.511978
vt 0.943526 0.444975
vt 0.920658 0.441224
vt 0.934710 0.486320
vt 0.945070 0.484569
vt 0.943119 0.452265
vt 0.837136 0.500054
vt 0.938486 0.485234
vt 0.943524 0.453411
vt 0.748428 0.562256
vt 0.954554 0.406371
vt 0.920518 0.459582
vt 0.894403 0.499599
vt 0.949619 0.435080
vt 0.935989 0.494281
vt 0.941733 0.527275
vt 0.945495 0.473408
vn -0.2081 0.9691 0.1322
vn 0.9598 0.0000 0.2807
vn 0.0000 -1.0000 -0.0000
vn 0.0000 -0.9984 0.0561
vn 0.9940 0.0000 -0.1095
vn -0.9885 0.0000 -0.1512
vn -1.0000 0.0000 0.0000
vn 0.9885 0.0000 -0.1512
vn 0.0000 0.9984 -0.0561
vn 0.0000 -0.8903 0.4554
vn -0.9598 0.0000 0.2807
vn 1.0000 0.0000 0.0000
vn 0.2081 0.9691 0.1322
vn 0.0000 0.0000 1.0000
vn -0.1726 0.9850 0.0000
vn 0.0000 -0.1895 -0.9819
vn -0.9922 -0.0237 -0.1227
vn 0.0000 -0.9658 0.2591
vn 0.0000 0.9581 -0.2865
vn 0.0000 1.0000 0.0000
vn 0.0000 0.9276 -0.3736
vn -0.2100 0.9777 0.0000
vn 0.2100 0.9777 0.0000
vn 0.0000 -0.0000 -1.0000
vn 0.0000 0.9276 0.3736
vn -0.3309 0.9437 0.0000
vn 0.3309 0.9437 0.0000
vn -0.6877 0.7260 0.0000
vn 0.6826 -0.7308 0.0000
vn -0.6827 0.7307 0.0000
vn 0.9999 -0.0119 0.0000
vn -0.9990 0.0444 0.0000
vn 0.0000 0.9912 0.1322
vn 0.0000 0.7336 0.6796
vn -0.7651 0.6439 -0.0000
vn 0.7651 0.6439 0.0000
vn 0.1726 0.9850 0.0000
vn 0.0000 0.7336 -0.6796
vn 0.6877 0.7260 0.0000
vn -0.6826 -0.7308 0.0000
vn 0.6827 0.7307 0.0000
vn -0.9999 -0.0119 0.0000
vn 0.9990 0.0444 0.0000
vn 0.9922 -0.0237 -0.1227
vn -0.9940 0.0000 -0.1095
usemtl Material
s off
f 9/1/1 40/2/1 20/3/1
f 7/4/2 39/5/2 8/6/2
f 66/7/3 10/8/3 65/9/3
f 1/10/4 5/11/4 4/12/4
f 37/13/5 14/14/5 2/15/5
f 4/16/6 38/17/6 1/18/6
f 16/19/7 4/16/7 17/20/7
f 4/12/3 46/21/3 17/22/3
f 2/15/8 5/23/8 37/13/8
f 6/24/9 2/25/9 38/26/9
f 43/27/10 39/28/10 41/29/10
f 41/30/11 9/31/11 43/32/11
f 18/33/12 8/6/12 46/34/12
f 3/35/13 7/36/13 19/37/13
f 11/38/14 10/39/14 12/40/14
f 44/41/15 64/42/15 67/43/15
f 67/44/7 10/45/7 44/46/7
f 68/47/12 12/48/12 66/49/12
f 13/50/16 15/51/16 45/52/16
f 1/18/17 13/53/17 45/54/17
f 1/10/18 15/55/18 37/56/18
f 2/25/19 13/57/19 38/26/19
f 16/58/20 42/59/20 6/24/20
f 42/60/12 46/34/12 5/23/12
f 17/22/3 8/61/3 43/27/3
f 9/31/7 17/20/7 43/32/7
f 47/62/21 25/63/21 21/64/21
f 9/1/22 47/62/22 16/65/22
f 18/66/23 19/37/23 7/36/23
f 16/67/24 21/68/24 18/69/24
f 23/70/7 52/71/7 24/72/7
f 20/3/25 22/73/25 23/74/25
f 20/3/26 24/75/26 47/62/26
f 21/64/27 22/73/27 19/37/27
f 25/76/12 26/77/12 22/78/12
f 24/79/24 51/80/24 25/81/24
f 22/82/14 58/83/14 23/84/14
f 28/85/20 55/86/20 56/87/20
f 26/88/14 28/89/14 58/83/14
f 58/90/7 56/91/7 52/71/7
f 27/92/14 30/93/14 32/94/14
f 31/95/24 33/96/24 29/97/24
f 27/98/28 31/99/28 55/86/28
f 55/100/24 29/97/24 51/80/24
f 51/101/29 30/102/29 26/103/29
f 33/104/30 36/105/30 34/106/30
f 29/107/31 34/108/31 30/109/31
f 32/94/14 34/110/14 36/111/14
f 32/112/32 35/113/32 31/114/32
f 19/37/33 40/2/33 3/35/33
f 57/115/12 48/116/12 60/117/12
f 59/118/7 53/119/7 54/120/7
f 60/121/14 49/122/14 59/123/14
f 53/124/20 48/125/20 50/126/20
f 56/127/24 51/80/24 52/128/24
f 61/129/34 59/130/34 62/131/34
f 64/132/35 59/118/35 54/120/35
f 63/133/36 60/117/36 61/134/36
f 55/135/12 26/77/12 51/136/12
f 54/137/24 50/138/24 57/139/24
f 67/140/24 63/141/24 68/142/24
f 11/38/14 62/143/14 44/144/14
f 68/145/37 61/146/37 11/147/37
f 64/148/38 57/149/38 63/150/38
f 39/28/3 65/9/3 41/29/3
f 28/89/14 70/151/14 58/83/14
f 40/2/20 68/152/20 3/35/20
f 40/153/7 65/154/7 67/44/7
f 3/155/12 66/49/12 39/5/12
f 73/156/24 71/157/24 69/158/24
f 71/159/39 28/85/39 56/87/39
f 69/158/24 56/127/24 52/128/24
f 70/160/40 52/161/40 58/162/40
f 76/163/41 73/164/41 74/165/41
f 74/166/42 69/167/42 70/168/42
f 72/169/14 74/170/14 70/151/14
f 75/171/43 72/172/43 71/173/43
f 7/4/2 3/155/2 39/5/2
f 66/7/3 12/174/3 10/8/3
f 1/10/4 37/56/4 5/11/4
f 37/13/44 15/175/44 14/14/44
f 4/16/6 6/176/6 38/17/6
f 16/19/7 6/176/7 4/16/7
f 4/12/3 5/11/3 46/21/3
f 2/15/8 42/60/8 5/23/8
f 6/24/9 42/59/9 2/25/9
f 43/27/10 8/61/10 39/28/10
f 41/30/11 40/153/11 9/31/11
f 18/33/12 7/4/12 8/6/12
f 11/38/14 44/144/14 10/39/14
f 44/41/15 62/177/15 64/42/15
f 67/44/7 65/154/7 10/45/7
f 68/47/12 11/178/12 12/48/12
f 13/50/16 14/179/16 15/51/16
f 1/18/45 38/17/45 13/53/45
f 1/10/18 45/180/18 15/55/18
f 2/25/19 14/181/19 13/57/19
f 16/58/20 18/182/20 42/59/20
f 42/60/12 18/33/12 46/34/12
f 17/22/3 46/21/3 8/61/3
f 9/31/7 16/19/7 17/20/7
f 47/62/21 24/75/21 25/63/21
f 9/1/22 20/3/22 47/62/22
f 18/66/23 21/64/23 19/37/23
f 16/67/24 47/183/24 21/68/24
f 23/70/7 58/90/7 52/71/7
f 20/3/25 19/37/25 22/73/25
f 20/3/26 23/74/26 24/75/26
f 21/64/27 25/63/27 22/73/27
f 25/76/12 51/136/12 26/77/12
f 24/79/24 52/128/24 51/80/24
f 22/82/14 26/88/14 58/83/14
f 28/85/20 27/98/20 55/86/20
f 26/88/14 27/92/14 28/89/14
f 58/90/7 28/184/7 56/91/7
f 27/92/14 26/88/14 30/93/14
f 31/95/24 35/185/24 33/96/24
f 27/98/28 32/186/28 31/99/28
f 55/100/24 31/95/24 29/97/24
f 51/101/29 29/187/29 30/102/29
f 33/104/30 35/188/30 36/105/30
f 29/107/31 33/189/31 34/108/31
f 32/94/14 30/93/14 34/110/14
f 32/112/32 36/190/32 35/113/32
f 19/37/33 20/3/33 40/2/33
f 57/115/12 50/191/12 48/116/12
f 59/118/7 49/192/7 53/119/7
f 60/121/14 48/193/14 49/122/14
f 53/124/20 49/194/20 48/125/20
f 56/127/24 55/100/24 51/80/24
f 61/129/34 60/195/34 59/130/34
f 64/132/35 62/196/35 59/118/35
f 63/133/36 57/115/36 60/117/36
f 55/135/12 27/197/12 26/77/12
f 54/137/24 53/198/24 50/138/24
f 67/140/24 64/199/24 63/141/24
f 11/38/14 61/200/14 62/143/14
f 68/145/37 63/201/37 61/146/37
f 64/148/38 54/202/38 57/149/38
f 39/28/3 66/7/3 65/9/3
f 28/89/14 72/169/14 70/151/14
f 40/2/20 67/203/20 68/152/20
f 40/153/7 41/30/7 65/154/7
f 3/155/12 68/47/12 66/49/12
f 73/156/24 75/204/24 71/157/24
f 71/159/39 72/205/39 28/85/39
f 69/158/24 71/157/24 56/127/24
f 70/160/40 69/206/40 52/161/40
f 76/163/41 75/207/41 73/164/41
f 74/166/42 73/208/42 69/167/42
f 72/169/14 76/209/14 74/170/14
f 75/171/43 76/210/43 72/172/43
